<?xml version="1.0" encoding="UTF-8" standalone="no"?><!DOCTYPE svg PUBLIC "-//W3C//DTD SVG 1.1//EN" "http://www.w3.org/Graphics/SVG/1.1/DTD/svg11.dtd"><!-- Generated by graphviz version 2.40.1 (20161225.0304)
 --><!-- Title: G Pages: 1 --><svg xmlns="http://www.w3.org/2000/svg" xmlns:xlink="http://www.w3.org/1999/xlink" width="822pt" height="848pt" viewBox="0.00 0.00 822.05 848.20">
<g id="graph0" class="graph" transform="scale(1 1) rotate(0) translate(4 844.1973)">
<title>G</title>
<polygon fill="#ffffff" stroke="transparent" points="-4,4 -4,-844.1973 818.0485,-844.1973 818.0485,4 -4,4"/>
<!-- 0 -->
<g id="node1" class="node">
<title>0</title>
<ellipse fill="none" stroke="#000000" cx="50.1858" cy="-394.4627" rx="50.3722" ry="50.3722"/>
<text text-anchor="middle" x="50.1858" y="-390.2627" font-family="Times,serif" font-size="14.00" fill="#000000">start_state</text>
</g>
<!-- 1 -->
<g id="node2" class="node">
<title>1</title>
<ellipse fill="none" stroke="#000000" cx="223.0845" cy="-747.4627" rx="53.8738" ry="53.8738"/>
<ellipse fill="none" stroke="#000000" cx="223.0845" cy="-747.4627" rx="57.8692" ry="57.8692"/>
<text text-anchor="middle" x="223.0845" y="-743.2627" font-family="Times,serif" font-size="14.00" fill="#000000">whitespace</text>
</g>
<!-- 0&#45;&gt;1 -->
<g id="edge1" class="edge">
<title>0-&gt;1</title>
<path fill="none" stroke="#000000" d="M60.37,-443.8815C71.035,-490.0956 90.1904,-560.2322 118.3715,-616.4627 134.1575,-647.9608 143.214,-652.892 165.1499,-680.4627 169.2668,-685.6371 173.6352,-690.9635 178.0545,-696.2449"/>
<polygon fill="#000000" stroke="#000000" points="175.4162,-698.5455 184.5422,-703.9276 180.7644,-694.0291 175.4162,-698.5455"/>
<text text-anchor="middle" x="132.7607" y="-661.6627" font-family="Times,serif" font-size="14.00" fill="#000000">_\n\t</text>
</g>
<!-- 2 -->
<g id="node3" class="node">
<title>2</title>
<ellipse fill="none" stroke="#000000" cx="223.0845" cy="-632.4627" rx="35.3347" ry="35.3347"/>
<ellipse fill="none" stroke="#000000" cx="223.0845" cy="-632.4627" rx="39.3527" ry="39.3527"/>
<text text-anchor="middle" x="223.0845" y="-628.2627" font-family="Times,serif" font-size="14.00" fill="#000000">ident1</text>
</g>
<!-- 0&#45;&gt;2 -->
<g id="edge3" class="edge">
<title>0-&gt;2</title>
<path fill="none" stroke="#000000" d="M59.6313,-444.0904C69.0659,-482.6678 86.8384,-535.6384 118.3715,-572.4627 134.0303,-590.749 156.7275,-604.7074 176.9904,-614.5392"/>
<polygon fill="#000000" stroke="#000000" points="175.5511,-617.7297 186.0951,-618.7668 178.4992,-611.3808 175.5511,-617.7297"/>
<text text-anchor="middle" x="132.7607" y="-599.6627" font-family="Times,serif" font-size="14.00" fill="#000000">n</text>
</g>
<!-- 3 -->
<g id="node4" class="node">
<title>3</title>
<ellipse fill="none" stroke="#000000" cx="368.3764" cy="-557.4627" rx="35.3347" ry="35.3347"/>
<ellipse fill="none" stroke="#000000" cx="368.3764" cy="-557.4627" rx="39.3527" ry="39.3527"/>
<text text-anchor="middle" x="368.3764" y="-553.2627" font-family="Times,serif" font-size="14.00" fill="#000000">ident2</text>
</g>
<!-- 0&#45;&gt;3 -->
<g id="edge4" class="edge">
<title>0-&gt;3</title>
<path fill="none" stroke="#000000" d="M74.833,-438.5356C94.8777,-469.9247 126.1832,-510.1781 165.1499,-531.4627 212.7339,-557.4542 275.7042,-561.7113 318.8671,-560.9017"/>
<polygon fill="#000000" stroke="#000000" points="319.2245,-564.393 329.12,-560.6075 319.0237,-557.3959 319.2245,-564.393"/>
<text text-anchor="middle" x="223.0845" y="-563.6627" font-family="Times,serif" font-size="14.00" fill="#000000">e</text>
</g>
<!-- 4 -->
<g id="node5" class="node">
<title>4</title>
<ellipse fill="none" stroke="#000000" cx="223.0845" cy="-435.4627" rx="48.6667" ry="48.6667"/>
<ellipse fill="none" stroke="#000000" cx="223.0845" cy="-435.4627" rx="52.6733" ry="52.6733"/>
<text text-anchor="middle" x="223.0845" y="-431.2627" font-family="Times,serif" font-size="14.00" fill="#000000">num_liter</text>
</g>
<!-- 0&#45;&gt;4 -->
<g id="edge5" class="edge">
<title>0-&gt;4</title>
<path fill="none" stroke="#000000" d="M99.2691,-406.102C118.7451,-410.7204 141.3542,-416.0817 161.8816,-420.9495"/>
<polygon fill="#000000" stroke="#000000" points="161.2308,-424.3921 171.7686,-423.294 162.846,-417.581 161.2308,-424.3921"/>
<text text-anchor="middle" x="132.7607" y="-420.6627" font-family="Times,serif" font-size="14.00" fill="#000000">Digit</text>
</g>
<!-- 6 -->
<g id="node6" class="node">
<title>6</title>
<ellipse fill="none" stroke="#000000" cx="779.701" cy="-514.4627" rx="30.2134" ry="30.2134"/>
<ellipse fill="none" stroke="#000000" cx="779.701" cy="-514.4627" rx="34.1957" ry="34.1957"/>
<text text-anchor="middle" x="779.701" y="-510.2627" font-family="Times,serif" font-size="14.00" fill="#000000">ident</text>
</g>
<!-- 0&#45;&gt;6 -->
<g id="edge6" class="edge">
<title>0-&gt;6</title>
<path fill="none" stroke="#000000" d="M97.5773,-377.3831C131.9446,-366.5112 179.7965,-354.4627 223.0845,-354.4627 223.0845,-354.4627 223.0845,-354.4627 595.0281,-354.4627 668.9083,-354.4627 727.7366,-428.5148 757.7993,-475.8618"/>
<polygon fill="#000000" stroke="#000000" points="754.8298,-477.7146 763.075,-484.3679 760.7785,-474.025 754.8298,-477.7146"/>
<text text-anchor="middle" x="368.3764" y="-358.6627" font-family="Times,serif" font-size="14.00" fill="#000000">Letter/{n, e}</text>
</g>
<!-- 7 -->
<g id="node7" class="node">
<title>7</title>
<ellipse fill="none" stroke="#000000" cx="223.0845" cy="-283.4627" rx="42.8615" ry="42.8615"/>
<text text-anchor="middle" x="223.0845" y="-279.2627" font-family="Times,serif" font-size="14.00" fill="#000000">pre_op1</text>
</g>
<!-- 0&#45;&gt;7 -->
<g id="edge7" class="edge">
<title>0-&gt;7</title>
<path fill="none" stroke="#000000" d="M82.1709,-355.2021C92.799,-343.9207 105.2856,-332.3372 118.3715,-323.6627 134.6682,-312.8598 154.2894,-304.347 172.1204,-297.9897"/>
<polygon fill="#000000" stroke="#000000" points="173.4788,-301.2243 181.8098,-294.6787 171.2153,-294.6003 173.4788,-301.2243"/>
<text text-anchor="middle" x="132.7607" y="-327.6627" font-family="Times,serif" font-size="14.00" fill="#000000">+</text>
</g>
<!-- 8 -->
<g id="node8" class="node">
<title>8</title>
<ellipse fill="none" stroke="#000000" cx="223.0845" cy="-180.4627" rx="42.8615" ry="42.8615"/>
<text text-anchor="middle" x="223.0845" y="-176.2627" font-family="Times,serif" font-size="14.00" fill="#000000">pre_op2</text>
</g>
<!-- 0&#45;&gt;8 -->
<g id="edge8" class="edge">
<title>0-&gt;8</title>
<path fill="none" stroke="#000000" d="M75.6591,-350.8214C97.0179,-316.2814 129.6561,-267.9522 165.1499,-231.4627 170.6026,-225.857 176.58,-220.1568 182.5596,-214.6964"/>
<polygon fill="#000000" stroke="#000000" points="184.9907,-217.2173 190.0954,-207.9333 180.3153,-212.0076 184.9907,-217.2173"/>
<text text-anchor="middle" x="132.7607" y="-289.6627" font-family="Times,serif" font-size="14.00" fill="#000000">-</text>
</g>
<!-- 10 -->
<g id="node11" class="node">
<title>10</title>
<ellipse fill="none" stroke="#000000" cx="223.0845" cy="-43.4627" rx="42.2874" ry="42.2874"/>
<text text-anchor="middle" x="223.0845" y="-39.2627" font-family="Times,serif" font-size="14.00" fill="#000000">str_start</text>
</g>
<!-- 0&#45;&gt;10 -->
<g id="edge14" class="edge">
<title>0-&gt;10</title>
<path fill="none" stroke="#000000" d="M67.2382,-346.898C87.5173,-292.5358 123.8601,-201.6329 165.1499,-128.4627 173.1415,-114.3008 182.7774,-99.4598 191.877,-86.2144"/>
<polygon fill="#000000" stroke="#000000" points="194.9183,-87.9715 197.7566,-77.7639 189.1722,-83.9736 194.9183,-87.9715"/>
<text text-anchor="middle" x="132.7607" y="-224.6627" font-family="Times,serif" font-size="14.00" fill="#000000">:</text>
</g>
<!-- 1&#45;&gt;1 -->
<g id="edge2" class="edge">
<title>1-&gt;1</title>
<path fill="none" stroke="#000000" d="M209.0174,-803.7584C210.5498,-815.2024 215.2388,-823.3973 223.0845,-823.3973 228.3558,-823.3973 232.2022,-819.698 234.6236,-813.7994"/>
<polygon fill="#000000" stroke="#000000" points="238.1041,-814.3103 237.1516,-803.7584 231.316,-812.6012 238.1041,-814.3103"/>
<text text-anchor="middle" x="223.0845" y="-827.5973" font-family="Times,serif" font-size="14.00" fill="#000000">_\n\t</text>
</g>
<!-- 2&#45;&gt;3 -->
<g id="edge12" class="edge">
<title>2-&gt;3</title>
<path fill="none" stroke="#000000" d="M258.2556,-614.3073C278.1545,-604.0355 303.2191,-591.0971 324.4069,-580.1598"/>
<polygon fill="#000000" stroke="#000000" points="326.2487,-583.148 333.5292,-575.4509 323.0378,-576.9278 326.2487,-583.148"/>
<text text-anchor="middle" x="302.9664" y="-596.6627" font-family="Times,serif" font-size="14.00" fill="#000000">e</text>
</g>
<!-- 2&#45;&gt;6 -->
<g id="edge19" class="edge">
<title>2-&gt;6</title>
<path fill="none" stroke="#000000" d="M262.0292,-637.4886C337.7994,-645.8292 509.445,-657.64 644.3529,-614.4627 684.9519,-601.469 723.2387,-570.8028 748.6608,-546.8298"/>
<polygon fill="#000000" stroke="#000000" points="751.3566,-549.0925 756.1258,-539.6317 746.4977,-544.0535 751.3566,-549.0925"/>
<text text-anchor="middle" x="478.7712" y="-648.6627" font-family="Times,serif" font-size="14.00" fill="#000000">(Letter|Digit)/{e}</text>
</g>
<!-- 3&#45;&gt;6 -->
<g id="edge18" class="edge">
<title>3-&gt;6</title>
<path fill="none" stroke="#000000" d="M402.6699,-537.8373C437.4258,-519.1636 493.3873,-492.3753 545.7033,-481.6627 612.1604,-468.0544 690.3995,-485.7133 737.4687,-499.9229"/>
<polygon fill="#000000" stroke="#000000" points="736.7212,-503.3557 747.3095,-502.9814 738.7988,-496.6711 736.7212,-503.3557"/>
<text text-anchor="middle" x="595.0281" y="-485.6627" font-family="Times,serif" font-size="14.00" fill="#000000">(Letter|Digit)/{q}</text>
</g>
<!-- 5 -->
<g id="node10" class="node">
<title>5</title>
<ellipse fill="none" stroke="#000000" cx="595.0281" cy="-556.4627" rx="44.6616" ry="44.6616"/>
<ellipse fill="none" stroke="#000000" cx="595.0281" cy="-556.4627" rx="48.6472" ry="48.6472"/>
<text text-anchor="middle" x="595.0281" y="-552.2627" font-family="Times,serif" font-size="14.00" fill="#000000">keyword</text>
</g>
<!-- 3&#45;&gt;5 -->
<g id="edge11" class="edge">
<title>3-&gt;5</title>
<path fill="none" stroke="#000000" d="M407.5973,-557.2896C442.9884,-557.1335 495.55,-556.9016 536.0132,-556.7231"/>
<polygon fill="#000000" stroke="#000000" points="536.0375,-560.2231 546.022,-556.6789 536.0066,-553.2232 536.0375,-560.2231"/>
<text text-anchor="middle" x="478.7712" y="-560.6627" font-family="Times,serif" font-size="14.00" fill="#000000">q</text>
</g>
<!-- 4&#45;&gt;4 -->
<g id="edge13" class="edge">
<title>4-&gt;4</title>
<path fill="none" stroke="#000000" d="M208.8166,-486.2234C210.102,-497.674 214.8579,-506.0493 223.0845,-506.0493 228.6117,-506.0493 232.5723,-502.2685 234.9661,-496.3145"/>
<polygon fill="#000000" stroke="#000000" points="238.4571,-496.7605 237.3525,-486.2234 231.645,-495.1496 238.4571,-496.7605"/>
<text text-anchor="middle" x="223.0845" y="-510.2493" font-family="Times,serif" font-size="14.00" fill="#000000">Digit</text>
</g>
<!-- 6&#45;&gt;6 -->
<g id="edge20" class="edge">
<title>6-&gt;6</title>
<path fill="none" stroke="#000000" d="M764.0125,-545.1111C763.3152,-556.961 768.5447,-566.8102 779.701,-566.8102 787.3709,-566.8102 792.2395,-562.1549 794.3068,-555.3947"/>
<polygon fill="#000000" stroke="#000000" points="797.8231,-555.4226 795.3895,-545.1111 790.8616,-554.6896 797.8231,-555.4226"/>
<text text-anchor="middle" x="779.701" y="-571.0102" font-family="Times,serif" font-size="14.00" fill="#000000">Letter|Digit</text>
</g>
<!-- 9 -->
<g id="node9" class="node">
<title>9</title>
<ellipse fill="none" stroke="#000000" cx="368.3764" cy="-216.4627" rx="20.8568" ry="20.8568"/>
<ellipse fill="none" stroke="#000000" cx="368.3764" cy="-216.4627" rx="24.8884" ry="24.8884"/>
<text text-anchor="middle" x="368.3764" y="-212.2627" font-family="Times,serif" font-size="14.00" fill="#000000">op</text>
</g>
<!-- 7&#45;&gt;9 -->
<g id="edge9" class="edge">
<title>7-&gt;9</title>
<path fill="none" stroke="#000000" d="M262.0201,-265.5079C285.3045,-254.7705 314.5258,-241.2954 336.4442,-231.1879"/>
<polygon fill="#000000" stroke="#000000" points="338.0368,-234.3078 345.6521,-226.9418 335.1054,-227.9511 338.0368,-234.3078"/>
<text text-anchor="middle" x="302.9664" y="-251.6627" font-family="Times,serif" font-size="14.00" fill="#000000">-</text>
</g>
<!-- 8&#45;&gt;9 -->
<g id="edge10" class="edge">
<title>8-&gt;9</title>
<path fill="none" stroke="#000000" d="M264.7193,-190.7788C286.6702,-196.2178 313.2715,-202.8089 334.0298,-207.9524"/>
<polygon fill="#000000" stroke="#000000" points="333.4519,-211.415 344.0002,-210.4228 335.1355,-204.6204 333.4519,-211.415"/>
<text text-anchor="middle" x="302.9664" y="-204.6627" font-family="Times,serif" font-size="14.00" fill="#000000">+</text>
</g>
<!-- 5&#45;&gt;6 -->
<g id="edge21" class="edge">
<title>5-&gt;6</title>
<path fill="none" stroke="#000000" d="M643.0666,-545.5373C671.9067,-538.9783 708.3026,-530.7008 736.2776,-524.3384"/>
<polygon fill="#000000" stroke="#000000" points="737.1988,-527.7184 746.1736,-522.0878 735.6464,-520.8927 737.1988,-527.7184"/>
<text text-anchor="middle" x="694.8532" y="-543.6627" font-family="Times,serif" font-size="14.00" fill="#000000">Letter|Digit</text>
</g>
<!-- 10&#45;&gt;10 -->
<g id="edge15" class="edge">
<title>10-&gt;10</title>
<path fill="none" stroke="#000000" d="M208.5032,-83.0843C209.0073,-94.6486 213.8677,-103.6061 223.0845,-103.6061 229.4211,-103.6061 233.6985,-99.3723 235.9169,-92.9683"/>
<polygon fill="#000000" stroke="#000000" points="239.3699,-93.5412 237.6658,-83.0843 232.4769,-92.3215 239.3699,-93.5412"/>
<text text-anchor="middle" x="223.0845" y="-107.8061" font-family="Times,serif" font-size="14.00" fill="#000000">Any/{:, endline}</text>
</g>
<!-- 11 -->
<g id="node12" class="node">
<title>11</title>
<ellipse fill="none" stroke="#000000" cx="368.3764" cy="-43.4627" rx="39.4288" ry="39.4288"/>
<ellipse fill="none" stroke="#000000" cx="368.3764" cy="-43.4627" rx="43.4254" ry="43.4254"/>
<text text-anchor="middle" x="368.3764" y="-39.2627" font-family="Times,serif" font-size="14.00" fill="#000000">str_end</text>
</g>
<!-- 10&#45;&gt;11 -->
<g id="edge16" class="edge">
<title>10-&gt;11</title>
<path fill="none" stroke="#000000" d="M265.4995,-43.4627C280.8216,-43.4627 298.3275,-43.4627 314.5008,-43.4627"/>
<polygon fill="#000000" stroke="#000000" points="314.9002,-46.9628 324.9001,-43.4627 314.9001,-39.9628 314.9002,-46.9628"/>
<text text-anchor="middle" x="302.9664" y="-47.6627" font-family="Times,serif" font-size="14.00" fill="#000000">:</text>
</g>
<!-- 11&#45;&gt;10 -->
<g id="edge17" class="edge">
<title>11-&gt;10</title>
<path fill="none" stroke="#000000" d="M327.8558,-27.6864C320.9638,-25.6022 313.8053,-23.7972 306.9137,-22.6627 295.47,-20.7788 283.2894,-21.9319 271.8615,-24.4587"/>
<polygon fill="#000000" stroke="#000000" points="270.8581,-21.103 262.0502,-26.9912 272.6076,-27.8808 270.8581,-21.103"/>
<text text-anchor="middle" x="302.9664" y="-27.6627" font-family="Times,serif" font-size="14.00" fill="#000000">:</text>
</g>
</g>
</svg>